# xmcd
#
# Track frame offsets:
#	150
#	12060
#	23397
#	36337
#	47680
#	66360
#	79492
#	96222
#	110525
#	122082
#	133942
#	148097
#	160950
#	179077
#	190467
#	205015
#
# Disc length: 2917 seconds
#
# Revision: 1
# Processed by: cddbd v1.5.2PL0 Copyright (c) Steve Scherf et al.
# Submitted via: audiograbber 1.83.01
#
DISCID=e80b6310
DTITLE=Slavko Avsenik - Slavko Avsenik - Das Oberkrainer Wunschkonzert
DYEAR=1900
DGENRE=Folk
TTITLE0=Trompetenecho
TTITLE1=Festzeltstimmung
TTITLE2=Lustige Polkaparty
TTITLE3=Slowenische Grüße
TTITLE4=Stimmung muß sein
TTITLE5=Abend für Abend
TTITLE6=Grand Prix Polka
TTITLE7=Komm mit mir nach Oberkrain
TTITLE8=Tante Mizzi
TTITLE9=Ein Feuerwerk der Musik
TTITLE10=Kein Grund für schlechte Laune
TTITLE11=Saitensprung Polka
TTITLE12=Wir spielen Tanzen singen
TTITLE13=Bauernkirmes
TTITLE14=Gregor und seine Gitarre
TTITLE15=Rendezvous in Oberkrain
EXTD=
EXTT0=
EXTT1=
EXTT2=
EXTT3=
EXTT4=
EXTT5=
EXTT6=
EXTT7=
EXTT8=
EXTT9=
EXTT10=
EXTT11=
EXTT12=
EXTT13=
EXTT14=
EXTT15=
PLAYORDER=
